<svg width="14" height="20" viewBox="0 0 14 20" fill="none" xmlns="http://www.w3.org/2000/svg">
<path fill-rule="evenodd" clip-rule="evenodd" d="M6.66667 8.33333C5.74667 8.33333 5 7.58667 5 6.66667C5 5.74667 5.74667 5 6.66667 5C7.58667 5 8.33333 5.74667 8.33333 6.66667C8.33333 7.58667 7.58667 8.33333 6.66667 8.33333ZM6.66667 4.16667C5.28583 4.16667 4.16667 5.28583 4.16667 6.66667C4.16667 8.0475 5.28583 9.16667 6.66667 9.16667C8.0475 9.16667 9.16667 8.0475 9.16667 6.66667C9.16667 5.28583 8.0475 4.16667 6.66667 4.16667ZM0.833333 6.335C0.833333 3.40417 3.55917 0.833333 6.66667 0.833333C9.77417 0.833333 12.5 3.40417 12.5 6.335C12.5 9.21417 10.3642 12.6208 6.66667 18.4408C2.92583 12.5467 0.833333 9.21417 0.833333 6.335ZM6.66667 0C3.16833 0 0 2.83583 0 6.335C0 9.83333 2.89083 14.01 6.66667 20C10.4425 14.01 13.3333 9.83333 13.3333 6.335C13.3333 2.83583 10.1658 0 6.66667 0Z" fill="#787878"/>
</svg>
