<svg width="126" height="36" viewBox="0 0 126 36" fill="none" xmlns="http://www.w3.org/2000/svg">
<path d="M104.576 0.078229C103.534 0.351206 103.436 0.558669 103.436 2.50227C103.436 4.07462 103.436 4.10737 103.718 4.38035C104.12 4.78436 104.663 4.93723 105.771 4.93723C106.89 4.93723 107.541 4.78436 107.965 4.41311C108.269 4.15105 108.269 4.12921 108.301 2.68789C108.356 0.929918 108.247 0.558669 107.606 0.252934C107.15 0.0236335 105.195 -0.0855575 104.576 0.078229Z" fill="#60C9E7"/>
<path d="M9.65654 7.63424C8.86373 7.74343 7.8863 8.071 7.22381 8.46409C6.58305 8.83534 5.43185 9.74162 5.14948 10.102C4.99743 10.2985 4.92141 10.3313 4.88883 10.233C4.86711 10.1456 4.73678 9.71978 4.60646 9.2721C4.29151 8.19111 4.04172 7.95089 3.22719 7.95089C2.44524 7.96181 1.09855 8.20203 0.566395 8.43133C-0.0417863 8.69339 -0.106949 8.88993 0.12112 9.99276C0.284025 10.8335 0.316607 11.9691 0.360048 18.9792C0.41435 24.9738 0.457792 27.0593 0.555535 27.234C0.794464 27.6489 1.29404 27.769 2.8145 27.769C4.46527 27.769 4.87797 27.6489 5.10604 27.103C5.2255 26.8082 5.25808 25.5088 5.25808 20.2567V13.7708L5.6382 13.2794C6.11605 12.657 6.74596 12.1547 7.40844 11.849C8.13609 11.5105 9.58052 11.5105 10.2104 11.849C10.7752 12.1547 11.1879 12.6352 11.3399 13.1702C11.4051 13.4214 11.4485 15.9764 11.4594 20.1257C11.4594 24.8973 11.4919 26.7754 11.5897 27.0593C11.7743 27.6053 12.1653 27.7581 13.5011 27.8018C14.9455 27.8564 15.4994 27.769 15.9013 27.4306L16.2271 27.1467V20.5406V13.9236L16.6615 13.3558C17.1611 12.7116 17.7041 12.2421 18.3992 11.8708C18.8118 11.6525 19.0508 11.6088 19.8653 11.6088C20.7124 11.6088 20.9079 11.6415 21.3315 11.8818C21.8636 12.1875 22.2437 12.6789 22.4175 13.2903C22.4827 13.5305 22.5261 16.1948 22.5261 20.2567C22.5261 24.3404 22.5695 26.9392 22.6347 27.1139C22.8193 27.6053 23.4818 27.8236 24.8611 27.8236C26.1969 27.8236 26.6748 27.7254 27.0549 27.365L27.3047 27.1357V19.7435C27.3047 12.6898 27.2938 12.3185 27.0875 11.4887C26.968 11.0192 26.7399 10.364 26.577 10.0474C26.034 8.96637 24.7742 8.03824 23.4384 7.72159C22.6347 7.53596 20.745 7.5578 19.9522 7.76527C18.7141 8.09284 17.4 8.8681 16.314 9.89449L15.6841 10.495L15.5212 10.1129C15.2931 9.556 14.3808 8.5842 13.7509 8.24571C12.7626 7.71067 11.0141 7.43769 9.65654 7.63424Z" fill="black"/>
<path d="M38.9796 7.62334C36.2971 7.85264 33.8861 8.75892 33.4299 9.74164C33.267 10.0801 33.267 10.1456 33.4299 10.6588C33.6797 11.3904 34.4074 12.5151 34.744 12.668C34.9721 12.7662 35.1785 12.7226 36.1233 12.3404C38.1108 11.5542 38.3714 11.4996 40.1742 11.4996C41.7055 11.4996 41.8467 11.5215 42.3354 11.7726C42.6287 11.9255 43.0197 12.2312 43.2043 12.4605C43.5301 12.8645 43.5409 12.93 43.5735 14.1093L43.617 15.3322L41.7273 15.4632C38.2411 15.7035 35.9604 16.3804 34.3856 17.6361C32.8435 18.8809 32.1918 20.3113 32.1918 22.4842C32.1918 24.1658 32.5937 25.3123 33.5494 26.3823C35.0481 28.0639 38.6321 28.5662 41.0865 27.4415C41.8033 27.103 42.8567 26.3496 43.4323 25.7599C43.8993 25.2577 44.0297 25.214 44.0297 25.5197C44.0297 26.0329 44.4858 27.234 44.8008 27.5288C45.1809 27.8783 45.5175 27.9001 46.9185 27.6599C48.048 27.4524 48.7648 27.1685 48.8517 26.8628C48.8951 26.7427 48.8408 26.2076 48.7431 25.6726C48.591 24.8755 48.5476 23.6853 48.4824 18.6516C48.4281 14.5133 48.363 12.4387 48.2761 12.1002C47.5593 9.42499 45.4198 7.91815 41.8576 7.62334C40.4892 7.50323 40.4132 7.50323 38.9796 7.62334ZM43.5953 20.3004V21.84L42.8676 22.5716C40.9345 24.5043 38.1108 24.7554 37.2962 23.0739C37.1007 22.6589 37.0682 22.4296 37.1007 21.7636C37.1333 21.0866 37.1876 20.89 37.4591 20.486C37.6655 20.2021 38.013 19.8964 38.3497 19.7108C39.3054 19.1976 41.1842 18.8154 42.9219 18.7717L43.5953 18.7608V20.3004Z" fill="black"/>
<path d="M63.6218 7.62332C62.2317 7.80894 60.3202 8.8135 59.3537 9.86173C59.093 10.1565 58.8867 10.2985 58.865 10.2221C58.8324 10.1456 58.7129 9.71978 58.5826 9.2721C58.4414 8.79166 58.2459 8.36582 58.0721 8.20203C57.8115 7.92905 57.7681 7.91813 56.8123 7.98365C55.6394 8.06008 54.4122 8.38765 54.0972 8.69339C53.88 8.92269 53.88 8.92269 54.0864 10.0474C54.271 11.0628 54.2927 11.9473 54.347 19.0884C54.3796 23.4451 54.4448 27.0921 54.4991 27.2013C54.6837 27.5834 55.2267 27.7581 56.3888 27.8018C57.8875 27.8673 58.4305 27.769 58.8215 27.3869L59.1256 27.0811V20.4969V13.9236L59.5274 13.3995C60.0162 12.7553 60.5592 12.2967 61.3194 11.9036C61.819 11.6525 62.0253 11.6088 62.8724 11.6197C64.2191 11.6197 64.849 11.9582 65.3812 12.9737C65.5767 13.334 65.5875 13.7926 65.6418 20.2458C65.6853 25.749 65.7287 27.1685 65.8373 27.3104C66.1631 27.7035 66.8582 27.8455 68.2049 27.8018C69.6167 27.769 70.0512 27.638 70.2792 27.1685C70.4638 26.8082 70.4747 13.9564 70.3009 12.5042C70.0946 10.8117 69.6385 9.7853 68.6936 8.88993C67.9768 8.23479 67.2492 7.89629 66.0328 7.67791C65.0011 7.50321 64.6535 7.49229 63.6218 7.62332Z" fill="black"/>
<path d="M83.29 7.62334C80.7812 7.86356 78.935 8.67158 77.5231 10.1566C76.4479 11.2812 75.8289 12.5479 75.3945 14.5242C75.1881 15.4851 75.1447 15.9546 75.1447 17.8327C75.1447 20.1912 75.275 21.163 75.7963 22.6808C76.5782 24.9956 78.1639 26.6226 80.3794 27.3978C83.1705 28.3696 87.33 28.184 89.7519 26.972C90.6642 26.5134 90.99 26.1421 90.9791 25.5853C90.9683 25.0611 90.4795 24.0893 89.9582 23.5434C89.4587 23.0083 89.3935 23.0193 87.6015 23.6526C85.7336 24.3186 83.9307 24.3732 82.6166 23.7836C81.9867 23.5106 81.2048 22.7463 80.879 22.113C80.3034 20.9556 80.1622 20.0929 80.1622 17.7781C80.1622 15.365 80.3359 14.415 80.9876 13.3122C82.1822 11.3031 85.0711 10.8554 88.1663 12.1875C88.579 12.3622 89.0025 12.4823 89.122 12.4496C89.5347 12.3404 90.7293 10.4514 90.7293 9.8836C90.7293 9.50143 90.3818 9.03191 89.8822 8.70433C88.6116 7.89632 85.6032 7.39404 83.29 7.62334Z" fill="black"/>
<path d="M118.043 7.667C117.044 7.86354 116.458 8.10376 115.589 8.68247C113.895 9.79622 113.102 11.314 113.102 13.4869C113.102 16.6097 114.296 17.9419 118.554 19.5797C119.727 20.0383 120.519 20.5188 120.856 20.9774C121.041 21.2285 121.084 21.4469 121.084 22.1239C121.084 23.1394 120.867 23.5215 120.074 23.9146C119.629 24.133 119.412 24.1657 118.423 24.1548C117.185 24.1439 116.49 23.9583 115.263 23.3359C114.915 23.1612 114.514 23.0192 114.372 23.0192C113.601 23.0192 112.385 25.0393 112.678 25.8364C113.156 27.103 115.784 28.042 118.869 28.042C120.476 28.042 121.54 27.8127 122.724 27.2231C125.102 26.0111 126.319 23.598 125.928 20.8245C125.765 19.6125 125.45 18.8591 124.82 18.1712C124.049 17.3195 123.289 16.85 121.193 15.9437C119.184 15.0701 118.565 14.6771 118.206 14.0328C117.891 13.4869 117.88 12.6352 118.174 12.2203C118.89 11.2266 120.932 11.0956 122.985 11.9036L123.854 12.2421L124.136 11.98C124.473 11.6743 125.124 10.3749 125.222 9.81806C125.396 8.93361 124.516 8.27847 122.605 7.8417C121.334 7.54689 119.086 7.45953 118.043 7.667Z" fill="#60C9E7"/>
<path d="M104.576 7.80895C104.055 7.91814 103.74 8.11469 103.599 8.39858C103.458 8.66064 103.436 10.2985 103.436 19.7108C103.436 30.2914 103.425 30.739 103.23 31.1758C102.904 31.8746 102.535 32.0166 101.264 31.9292C100.319 31.8637 100.2 31.8746 100.037 32.0603C99.7435 32.3878 99.3959 33.5016 99.3851 34.124C99.3851 34.8446 99.6131 35.194 100.265 35.4998C100.721 35.7182 100.96 35.74 102.567 35.74C104.185 35.74 104.413 35.7182 104.978 35.4889C106.379 34.9211 107.389 33.8619 107.91 32.3987L108.16 31.6999L108.193 20.1148C108.225 8.60605 108.215 8.52961 107.997 8.24572C107.845 8.06009 107.596 7.92906 107.226 7.85263C106.705 7.73252 105.022 7.71068 104.576 7.80895Z" fill="#60C9E7"/>
<path d="M94.6934 22.5716C94.1504 22.6698 93.8028 22.8555 93.6616 23.1284C93.5096 23.4123 93.5205 26.8955 93.6725 27.1903C93.9114 27.638 94.5848 27.8236 95.9966 27.8236C97.4302 27.8236 97.9189 27.7254 98.299 27.365C98.538 27.1357 98.5488 27.0811 98.5488 25.1485C98.5488 22.9974 98.5597 23.0302 97.9081 22.6917C97.6148 22.5388 95.3341 22.4514 94.6934 22.5716Z" fill="#60C9E7"/>
</svg>
